<?xml version="1.0" encoding="utf-8"?>
<!-- Generator: Adobe Illustrator 17.0.0, SVG Export Plug-In . SVG Version: 6.00 Build 0)  -->
<!DOCTYPE svg PUBLIC "-//W3C//DTD SVG 1.1//EN" "http://www.w3.org/Graphics/SVG/1.1/DTD/svg11.dtd">
<svg version="1.1" id="Layer_1" xmlns="http://www.w3.org/2000/svg" xmlns:xlink="http://www.w3.org/1999/xlink" x="0px" y="0px"
	 width="48.109px" height="34.5px" viewBox="0 0 48.109 34.5" enable-background="new 0 0 48.109 34.5" xml:space="preserve">
<path fill="#FFFFFF" stroke="#242424" stroke-width="1.5" stroke-miterlimit="10" d="M46.982,4.687
	c-0.492-0.098-2.015-0.541-2.163-0.59C44.672,3.999,44.377,3.9,44.278,3.36c-0.098-0.541-0.049-1.081-0.836-1.622
	c-0.836-0.59-1.18-0.541-1.425-0.737c-0.688-0.246-1.671-0.344-2.654-0.147c-1.032,0.197-1.327,0.688-1.868,0.983
	c-0.541,0.295-1.327,1.425-1.769,1.868c-0.442,0.442-2.212,2.703-2.998,3.097c-0.737,0.393-2.31,1.081-3.047,1.13
	c-0.737,0.098-1.475,0.147-2.064,0.541c-0.59,0.344-1.032,0.639-2.654,0.786c-1.622,0.147-5.554-0.049-6.291-0.147
	c-0.688-0.098-2.31-0.393-3.342-0.197c-1.081,0.246-1.524,0.442-1.917,0.295s-1.425-0.295-2.114-0.246
	c-0.688,0.049-2.114,0.639-2.703,0.737S6.679,9.603,5.893,9.209c-0.688-0.344-2.9-1.229-3.49-1.376c-0.59-0.098-1.13-0.197-1.425,0
	C0.733,7.98,0.537,8.718,1.225,9.406c0.688,0.639,2.359,2.212,2.949,2.605s1.868,1.13,2.998,1.13
	c1.18,0.049,2.064-0.197,2.408-0.295s0.688-0.246,0.639-0.147c-0.049,0.098-0.59,2.408-0.983,3.244
	c-0.393,0.786-1.18,3.686-1.475,4.866c-0.295,1.18-0.737,2.949-1.327,3.391s-1.18,0.639-1.622,1.917
	c-0.491,1.229-0.786,4.473-0.983,4.915c-0.246,0.442-0.295,1.229-0.049,1.475S4.32,32.9,4.565,32.9
	c0.295,0.049,0.442,0.098,0.688,0.098s0.541,0.049,0.836-0.098c0.246-0.147,0.492-0.393,0.393-0.59
	c-0.098-0.246-0.737-0.492-0.786-1.13c-0.098-0.639,0.344-2.605,0.492-2.9s0.688-1.376,1.081-1.769
	c0.393-0.393,0.688-1.032,0.983-1.18c0.295-0.147,2.703-2.212,2.703-2.212s-1.868,3.391-1.72,4.424s0.59,2.261,0.688,2.556
	c0.147,0.344,0.246,1.13,0.934,1.229c0.688,0.098,1.72,0.098,2.064,0s0.59-0.836,0.295-1.081c-0.295-0.295-1.032-0.344-1.327-0.344
	c-0.295-0.049-0.442-0.098-0.541-1.081c-0.098-0.934-0.246-1.819-0.049-2.163s0.885-1.475,1.229-1.671s2.163-1.475,3.146-2.556
	s1.671-1.966,1.769-2.064c0.098-0.098,0.639-1.13,1.229-1.032c0.59,0.147,2.556,0.688,2.556,0.688
	c0.295,0.049,1.622,0.344,2.458,0.983c0.836,0.688,2.261,1.032,3.637,1.18c1.425,0.147,2.408,0.197,2.408,0.197
	s0.885,0.786,0.983,1.72s0.295,1.769,0.295,2.261c0,0.393,0.098,1.376,0.147,1.622c0.049,0.246,0.098,2.015,0.147,2.261
	c0.049,0.197,0.098,1.18,0.197,1.475c0.049,0.295,0.492,1.376,0.639,1.573c0.147,0.197,0.836,0.393,1.327,0.442
	c0.442,0.049,0.885-0.049,1.081-0.147c0.147-0.098,0.246-0.492,0.246-0.639c-0.049-0.147-0.246-0.295-0.246-0.295
	s0.639,0.197,1.18,0.197c0.492,0,0.983-0.098,1.081-0.197c0.147-0.147,0.492-0.639,0-1.081c-0.442-0.393-0.885-0.442-1.278-0.393
	s-1.032-0.786-1.032-1.376c0-0.541,0.147-2.163,0.197-2.507c0.049-0.344,0.344-2.556,0.737-3.932s0.098-1.376,0.885-2.212
	c0.737-0.836,2.654-3.293,2.753-4.719c0.098-1.376-0.049-2.556,0.541-3.686s1.425-3.195,1.524-3.342
	c0.098-0.147,0.344-1.425,0.492-1.425c0.147,0,2.556,0.442,3.244,0.295s1.229-0.59,1.475-0.639c0.344-0.049,0.639-0.541,0.737-1.081
	c0.147-0.59,0.147-0.639,0.197-1.18C47.375,5.179,47.473,4.736,46.982,4.687z"/>
</svg>
