<?xml version="1.0" encoding="utf-8"?>
<!-- Generator: Adobe Illustrator 17.0.0, SVG Export Plug-In . SVG Version: 6.00 Build 0)  -->
<!DOCTYPE svg PUBLIC "-//W3C//DTD SVG 1.1//EN" "http://www.w3.org/Graphics/SVG/1.1/DTD/svg11.dtd">
<svg version="1.1" id="Layer_1" xmlns="http://www.w3.org/2000/svg" xmlns:xlink="http://www.w3.org/1999/xlink" x="0px" y="0px"
	 width="33.408px" height="33.688px" viewBox="0 0 33.408 33.688" enable-background="new 0 0 33.408 33.688" xml:space="preserve">
<path fill="#FFFFFF" stroke="#242424" stroke-width="1.5" stroke-miterlimit="10" d="M32.179,13.128c0,0-0.652-0.643-1.271-1.667
	c0,0-1.164-2.134-4.483-2.717c0,0-0.687-6.515-6.003-7.901c0,0-0.832,5.829,3.421,8.578L23.31,9.845c0,0-2.8-5.222-8.414-5.236
	c0,0,0.751,5.435,6.886,7.355c0,0-0.308,1.59-0.23,1.895c0,0,0.129,1.752-2.544,1.087c0,0-7.719-2.7-12.201,3.982
	c-0.905,1.349-0.859,1.838-0.859,1.838s0.036-0.237-1.45-0.232c-2.199,0.007-3.762,1.709-3.748,3.445
	c0.014,1.794,1.309,3.801,3.659,3.783c2.202-0.017,2.121-0.737,2.121-0.737s0.163,1.9,2.808,3.652
	c1.22,0.809,1.941,0.917,1.941,0.917c-0.747,0.7,0.072,1.25,0.072,1.25s2.827,0,3.146-0.027l7.812-0.061
	c0,0,1.402-0.964-1.085-2.316c0,0-1.985-0.48-3.432-0.316c0,0,3.501-0.713,4.101-1.823l2.01,4.432l2.836-0.05
	c0,0,0.705-1.185-0.291-1.94c0,0-0.689-0.261-1.031-0.258c0,0-0.115-0.229-0.041-0.456c0,0,0.469-3.319,0.312-3.966
	c0,0,5.043-3.203,3.944-7.462c0,0-0.202-1.408,0.86-2.065c-0.001-0.038,0.037-0.038,0.037-0.038s1.713-0.432,1.927-2.149
	C32.455,14.344,33.062,13.959,32.179,13.128z"/>
</svg>
