<?xml version="1.0" encoding="utf-8"?>
<!-- Generator: Adobe Illustrator 17.0.0, SVG Export Plug-In . SVG Version: 6.00 Build 0)  -->
<!DOCTYPE svg PUBLIC "-//W3C//DTD SVG 1.1//EN" "http://www.w3.org/Graphics/SVG/1.1/DTD/svg11.dtd">
<svg version="1.1" id="Layer_1" xmlns="http://www.w3.org/2000/svg" xmlns:xlink="http://www.w3.org/1999/xlink" x="0px" y="0px"
	 width="42.35px" height="23.5px" viewBox="0 0 42.35 23.5" enable-background="new 0 0 42.35 23.5" xml:space="preserve">
<g>
	<path fill="#FFFFFF" stroke="#242424" stroke-width="1.5" stroke-miterlimit="10" d="M30.81,8.004c0.058,0,0.058-0.058,0.058-0.115
		c0.173-0.23,0.115-0.518,0-0.805c-0.115-0.288-0.345-0.403-0.575-0.575c-2.531-1.898-4.716-3.739-7.822-4.544
		c-2.818-0.748-5.752-0.805-8.685-1.208c-0.23-0.058-0.288,0.23-0.173,0.345c0.345,0.288,0.863,0.748,1.495,1.265
		c-0.23,0.058-0.403,0.173-0.575,0.23c-1.553,0.69-2.818,1.726-4.199,2.588c-0.403,0.23-0.863,0.518-1.265,0.748
		c-0.173,0.115-1.323,0.978-1.38,0.92C5.331,5.358,3.03,4.437,1.535,3.92C0.96,3.747,0.5,4.38,0.902,4.84
		c0.805,0.978,2.071,2.243,3.624,3.566c0.288,0.23,0.288,0.633,0,0.863c-1.208,1.093-2.186,2.128-2.876,2.933
		c-0.403,0.46,0.058,1.093,0.633,0.92c1.265-0.403,3.106-1.15,5.061-2.301c0.173-0.115,0.403-0.115,0.633,0
		c1.726,1.093,3.278,1.956,4.486,2.416c0,0,0.058,0,0.058,0.058c1.956,1.208,4.371,2.243,7.017,2.243
		c1.898,0,3.796-0.518,5.579-1.438c2.128-1.035,3.854-2.588,5.579-4.141c0.173-0.173,0.345-0.403,0.288-0.633
		c-0.115-0.345-0.748-0.403-0.805-0.748C30.119,8.349,30.522,8.234,30.81,8.004z M27.474,8.234c-0.575,0-1.035-0.518-1.035-1.15
		c0-0.633,0.46-1.15,1.035-1.15s1.035,0.518,1.035,1.15S28.049,8.234,27.474,8.234z"/>
	<path fill="#FFFFFF" stroke="#242424" stroke-width="1.5" stroke-miterlimit="10" d="M25.248,18.883
		c-0.032,0.192-0.383,0.224-0.447,0.415c-0.032,0.128,0.064,0.256,0.16,0.352c0.959,0.863,1.917,1.726,3.1,2.301
		c0.991,0.511,2.045,0.799,3.1,0.799c1.47,0,2.812-0.575,3.899-1.246c0-0.032,0.032-0.032,0.032-0.032
		c0.671-0.256,1.534-0.735,2.493-1.342c0.128-0.064,0.256-0.064,0.352,0c1.087,0.639,2.109,1.055,2.812,1.278
		c0.32,0.096,0.575-0.256,0.352-0.511c-0.383-0.447-0.927-1.023-1.598-1.63c-0.16-0.128-0.16-0.352,0-0.479
		c0.863-0.735,1.566-1.438,2.013-1.981c0.224-0.256-0.032-0.607-0.352-0.511c-0.831,0.288-2.109,0.799-3.419,1.63
		c-0.032,0.032-0.671-0.447-0.767-0.511c-0.224-0.128-0.479-0.288-0.703-0.415c-0.767-0.479-1.47-1.055-2.333-1.438
		c-0.096-0.032-0.192-0.096-0.32-0.128c0.352-0.288,0.639-0.543,0.831-0.703c0.064-0.064,0.032-0.224-0.096-0.192
		c-1.63,0.224-3.26,0.256-4.826,0.671c-1.726,0.447-2.94,1.47-4.346,2.525c-0.128,0.096-0.256,0.16-0.32,0.32
		c-0.064,0.16-0.096,0.32,0,0.447c0,0.032,0,0.064,0.032,0.064C25.056,18.691,25.28,18.755,25.248,18.883z M26.175,18.052
		c0-0.352,0.256-0.639,0.575-0.639c0.32,0,0.575,0.288,0.575,0.639s-0.256,0.639-0.575,0.639S26.175,18.404,26.175,18.052z"/>
</g>
</svg>
