<?xml version="1.0" encoding="utf-8"?>
<!-- Generator: Adobe Illustrator 17.0.0, SVG Export Plug-In . SVG Version: 6.00 Build 0)  -->
<!DOCTYPE svg PUBLIC "-//W3C//DTD SVG 1.1//EN" "http://www.w3.org/Graphics/SVG/1.1/DTD/svg11.dtd">
<svg version="1.1" id="Layer_1" xmlns="http://www.w3.org/2000/svg" xmlns:xlink="http://www.w3.org/1999/xlink" x="0px" y="0px"
	 width="35.581px" height="41.622px" viewBox="0 0 35.581 41.622" enable-background="new 0 0 35.581 41.622" xml:space="preserve">
<g>
	<path fill="#FFFFFF" stroke="#242424" stroke-width="1.5" stroke-miterlimit="10" d="M24.211,19.553
		c0.094-0.341,0.151-0.662,0.151-0.988c0-0.321-0.097-0.61-0.087-0.884c1.105,1.06,2.229,1.577,3.391,1.472
		c0.672-0.061,1.21-0.505,1.77-0.886c0.342-0.232,0.741-0.416,1.088-0.67c0.375-0.274,0.805-0.505,1.066-0.768
		c0.194-0.197,0.509-0.645,0.274-0.823c-0.231-0.174-0.412,0.118-0.581,0.282c-0.304,0.295-0.807,0.605-1.188,0.691
		c-0.221-0.312,0.068-0.673,0.337-1.011c0.491-0.615,1.012-1.105,1.516-1.82c0.221-0.313,0.57-0.868,0.35-1.031
		c-0.225-0.166-0.518,0.297-0.658,0.489c-0.605,0.829-1.171,1.605-1.846,1.979c-0.267-0.301,0.044-0.664,0.236-1.076
		c0.146-0.312,0.213-0.711,0.336-1.097c0.074-0.234,0.346-0.88,0.09-1.026c-0.263-0.15-0.444,0.321-0.544,0.534
		c-0.128,0.274-0.262,0.571-0.347,0.804c-0.198,0.541-0.321,1.151-0.715,1.508c-0.233-0.315-0.287-0.673-0.27-1.087
		c0.011-0.274,0.226-1.027-0.25-1.074c-0.256-0.026-0.336,0.462-0.37,0.618c-0.131,0.604,0.129,1.171-0.052,1.765
		c-0.631-0.174-0.485-1.033-1.218-1.299c-0.262,0.039-0.39,0.404-0.303,0.604c0.681,0.483,0.571,1.138,0.839,1.711
		c-0.042,0.264-0.02,0.514-0.241,0.816c-0.075,0.028-0.153,0.044-0.232,0.05c-0.481-0.382-0.763-0.947-1.306-1.385
		c-0.629-0.507-1.809-1.004-2.367-0.669c-0.571,0.344-0.84,1.53-1.264,2.183c-0.813-1.181-1.779-2.68-3.042-3.873
		c-1.159-1.094-2.898-2.258-4.291-2.423c-0.144-0.729,0.822-1.374,1.046-2.066c0.064-0.195,0.057-0.5,0.069-0.727
		c0.042-0.843-0.179-1.565-0.9-2.235c0.059-0.472-0.293-1.083,0.046-1.712c0.05-0.092,0.155-0.167,0.203-0.269
		c0.07-0.153,0.074-0.421,0.116-0.668c0.032-0.194,0.144-0.532-0.03-0.619c-0.312-0.156-0.501,0.595-0.573,0.801
		c-0.62,0.212-0.549-0.557-0.614-0.995c-0.042-0.28-0.166-0.523-0.226-0.801c-0.076-0.356,0.051-0.828-0.283-1.068
		c-0.431,0.213-0.534,0.781-0.501,1.133c0.041,0.441,0.459,0.894,0.221,1.341c-0.661-0.327-0.502-0.978-1.147-1.367
		c-0.486,0.261-0.167,0.784,0.066,1.184c0.127,0.217,0.58,0.724,0.287,0.927c-0.225,0.156-0.981-0.572-1.362-0.678
		c-0.259-0.072-0.437-0.026-0.616,0.203c0.042,0.351,0.502,0.379,0.807,0.52c0.199,0.092,0.429,0.244,0.585,0.377
		c0.146,0.124,0.425,0.454,0.317,0.661c-0.295,0.559-1.113-0.325-1.44,0.328c0.776,0.353,1.649,0.233,2.413,0.641
		c0.123,0.066,0.304,0.157,0.424,0.273c0.219,0.214,0.313,0.799,0.376,1.099c0.086,0.411,0.103,0.761,0.091,1.143
		c-0.69,0.497-1.534,1.064-1.998,2.081c-0.729-0.155-1.535,0.421-2.243-0.417c0.241-1.143-0.478-2.057-1.821-2.801
		c-0.471-0.26-0.885-0.361-1.31-0.359c-0.124,0-0.252,0.049-0.392,0.033C5.761,7.094,5.517,6.979,5.18,7
		C4.866,7.02,4.602,7.033,4.287,6.967C3.273,6.755,1.902,6.478,1.182,7.621C0.997,7.914,0.814,8.409,0.767,8.752
		C0.662,9.524,1.012,10.06,1.57,10.696c0.281,0.321,0.664,0.538,0.998,0.844c0.202,0.184,0.332,0.456,0.53,0.684
		c0.175,0.201,0.411,0.314,0.614,0.51c0.213,0.205,0.323,0.459,0.556,0.643c0.296,0.234,0.652,0.392,1.014,0.51
		c1.139,0.372,2.149,0.63,2.967-0.486c1.157,0.473,0.829,1.553,1.293,2.29c-0.732,0.677-1.123,1.793-1.284,2.57
		c-0.7,0.323-1.46,0.365-2.231,0.361c-0.421-0.245-0.69-0.574-0.906-0.898c-0.208-0.314-0.432-0.646-0.575-0.97
		c-0.088-0.201-0.03-0.542-0.355-0.6c-0.307,0.184-0.252,0.403-0.149,0.674c0.113,0.298,0.502,0.541,0.3,0.82
		c-0.282,0.389-0.71-0.219-0.958-0.418c-0.141-0.112-0.303-0.163-0.437-0.252c-0.234-0.158-0.398-0.424-0.646-0.416
		c-0.476,0.727,0.654,1.108,1.084,1.641c-0.322,0.272-0.761,0.172-1.197,0.085c-0.444-0.089-1.06-0.167-0.984,0.508
		c0.604,0.332,1.148-0.042,1.738,0.492c-0.459,0.407-1.176,0.174-1.692,0.365c-0.147,0.055-0.481,0.234-0.499,0.421
		c-0.042,0.419,0.728,0.289,0.889,0.259c0.342-0.064,0.638-0.031,0.97-0.089c0.369-0.063,1.122-0.437,1.196,0.228
		c-0.255,0.192-0.725,0.527-0.639,0.902c0.278,0.185,0.443-0.071,0.688-0.27c0.177-0.144,0.437-0.203,0.554-0.328
		c0.1-0.106,0.157-0.308,0.273-0.423c0.343-0.34,1.088-0.222,1.478-0.475c0.624,0.303,1.209,0.434,1.788,0.325
		c0.501-0.095,1.141-0.234,1.552-0.769c0.462-0.601,0.862-1.428,1.496-1.435c0.674,1.138,1.819,2.284,3.25,3.151
		c1.427,0.864,2.917,1.187,4.154,1.307c-0.954,0.729-1.863,2.316-1.567,3.272c0.493,0.949,2.379,1.655,3.423,2.176
		c0.11,0.647-0.656,0.783-1.079,0.789c-0.567,0.008-1.128-0.3-1.506-0.143c-0.257,0.107-0.465,0.477-0.256,0.663
		c0.431,0.383,1.067-0.418,1.329,0.285c-0.254,0.283-0.64,0.422-0.947,0.674c-0.3,0.245-0.672,0.502-0.799,0.885
		c0.396,0.407,0.675-0.073,1.033-0.362c0.118-0.095,0.919-0.633,1.02-0.342c0.068,0.198-0.224,0.256-0.354,0.372
		c-0.295,0.263-0.569,0.66-0.882,1.058c-0.225,0.287-0.833,0.925-0.728,1.13c0.215,0.418,0.63-0.174,0.892-0.454
		c0.139-0.148,0.285-0.277,0.433-0.406c0.389-0.341,0.731-0.763,1.171-0.93c-0.006,0.613-0.417,1.546-0.797,2.255
		c-0.139,0.26-0.408,0.63-0.167,0.835c0.149,0.127,0.47,0.021,0.597-0.129c0.171-0.202,0.14-0.396,0.204-0.582
		c0.278-0.818,0.732-1.806,1.279-2.515c0.523,0.356-0.633,1.254-0.287,1.642c0.491,0.55,0.841-0.736,0.943-1.019
		c0.167-0.465,0.271-0.828,0.261-1.202c0.269-0.691,0.413-1.33,0.449-1.938c0.071-1.171-1.158-2.407-2.56-3.248
		c0.603-0.343,1.178-0.813,1.714-1.464c1.14,0.946,2.165,1.122,3.433,1.185c0.913,0.045,1.87,0.226,2.683,0.444
		c2.278,0.611,4.511,1.997,4.958,4.223c0.158,0.784,0.065,1.638-0.007,2.536c-0.095,1.175-0.563,2.344-1.453,3.717
		c-0.049,0.094-0.079-0.008-0.008-0.033c-0.09,0.031-0.516,0.691-0.586,0.82c-2.519,2.791-5.459,3.892-8.57,4.041
		c-0.074,0.004-0.242-0.048-0.219,0.03c2.688,0.362,5.203-0.376,7.511-1.954c1.098-0.75,2.321-1.773,3.328-2.994
		c1.056-1.28,1.855-2.863,2.189-4.327c0.639-2.8,0.683-5.467-2.219-7.454c-1.456-0.997-2.941-1.427-4.334-1.737
		C26.481,21.937,24.976,20.768,24.211,19.553z"/>
</g>
</svg>
