<?xml version="1.0" encoding="utf-8"?>
<!-- Generator: Adobe Illustrator 17.0.0, SVG Export Plug-In . SVG Version: 6.00 Build 0)  -->
<!DOCTYPE svg PUBLIC "-//W3C//DTD SVG 1.1//EN" "http://www.w3.org/Graphics/SVG/1.1/DTD/svg11.dtd">
<svg version="1.1" id="Layer_1" xmlns="http://www.w3.org/2000/svg" xmlns:xlink="http://www.w3.org/1999/xlink" x="0px" y="0px"
	 width="36.503px" height="39.5px" viewBox="0 0 36.503 39.5" enable-background="new 0 0 36.503 39.5" xml:space="preserve">
<g>
	<polygon fill="#FFFFFF" points="34.418,0.917 35.501,4.167 36.085,6.75 35.251,8.583 34.418,9.917 34.418,12.5 35.251,15.417
		33.585,17.75 31.418,20.417 30.585,22.417 30.585,24.917 30.585,27.75 31.585,29.833 33.335,31.667 32.501,33.25 31.168,32.75
		29.251,31.417 27.835,28.5 26.918,25.833 25.835,25.5 24.501,26.583 23.251,28.75 22.501,30.167 24.042,31.403 25.501,31.667
		24.918,32.583 13.085,32.583 11.585,31.667 9.001,32.417 5.585,34 3.585,35.083 3.168,36.417 4.168,37.833 3.168,38.25
		0.686,37.581 0.686,34.5 1.918,33.083 4.751,31.417 7.335,30.083 10.418,26.583 11.335,22.75 14.125,15.678 19.168,12.833
		25.668,11 27.001,9.917 26.085,4.833 25.835,2.083 27.835,2.417 29.994,3.907 31.668,2.667 	"/>
	<g transform="translate(0,508) scale(0.084783,-0.084783)">
		<g>
			<path fill="#242424" d="M50.209,5525.876c-2.707,0-5.592,0.392-8.575,1.152c-3.536,0.898-9.255,3.329-13.045,5.264
				c-25.306,13.039-29.441,30.558-28.456,42.952c1.163,13.937,4.648,22.058,12.86,29.994c5.892,5.702,13.471,9.952,30.017,16.794
				c29.332,12.164,41.201,19.789,57.713,37.089c11.956,12.497,12.186,12.739,20.606,44.737c6.692,25.433,9.877,36.087,14.202,47.536
				c17.266,45.549,44.818,78.037,81.89,96.576c18.447,9.18,37.913,14.922,67.192,19.829c17.865,2.955,19.489,3.807,21.551,5.834
				c1.14,1.169,2.488,3.035,2.361,8.84c-0.104,5.506-1.221,10.741-7.268,29.188c-6.496,19.731-8.454,27.967-9.1,38.282
				c-0.852,10.856,0.346,18.291,3.801,23.267c2.949,4.44,6.277,6.22,11.749,6.22c6.208-0.012,10.297-1.9,21.309-7.372
				c12.474-6.208,19.558-8.627,25.26-8.627c1.912,0,3.813,0.259,6.001,0.818c4.043,1.031,7.452,3.167,17.001,13.062
				c6.635,6.825,11.484,10.96,14.433,12.308c5.886,2.695,12.002,2.851,17.519,0.455c10.597-4.469,12.198-13.972,14.122-30.374
				c1.497-13.039,2.546-19.696,5.586-35.609c3.041-16.091,2.419-22.063-7.671-33.444c-8.604-9.629-10.631-15.936-5.782-34.336
				c3.26-12.1,4.17-18.666,4.262-30.489c0-21.16-4.435-30.858-23.739-51.937c-6.001-6.56-11.449-12.976-12.785-14.859
				c-11.622-16.373-16.794-36.058-16.794-63.863c0-26.677,4.653-39.232,20.745-55.934c5.598-5.92,8.961-9.998,10.067-12.187
				c3.133-6.162,2.822-14.49-0.841-21.689c-3.087-5.989-7.314-11.507-17.496-11.657c-19.904,0-47.582,28.474-56.601,51.775
				c-1.981,4.999-2.995,9.606-3.847,17.531c-1.129,10.862-1.751,11.576-2.891,12.878c-1.509,1.739-2.834,2.822-8.385,3.11
				c-1.221,0.069-2.165,0.115-2.96,0.115c-0.852-0.104-1.175-0.311-1.601-0.553c-4.02-2.338-14.859-15.607-24.016-33.53
				c-1.002-1.993-1.866-3.744-2.603-5.275c20.503-1.302,30.443-5.909,31.422-26.976l0.576-14.859l-158.931-0.415l-6.07,5.08
				c-4.509,3.801-7.452,4.562-10.747,4.562c-4.187,0-9.842-1.394-18.343-4.516c-7.337-2.707-41.697-16.402-47.352-18.936
				c-12.215-5.471-19.264-12.336-20.163-14.628c-0.795-2.084-1.734-4.561,8.817-15.699c9.376-10.021,10.211-12.083,10.211-15.435
				C65.419,5531.923,60.714,5525.876,50.209,5525.876z M310.023,5961.392c-0.38-1.797-0.634-4.884-0.219-10.2
				c0.541-8.673,2.315-15.958,8.259-34.014c5.874-17.9,7.982-25.778,8.155-34.342c0.196-9.358-2.2-16.258-7.533-21.712
				c-6.577-6.445-13.142-7.798-31.169-10.775c-27.414-4.596-45.44-9.872-62.199-18.21c-32.954-16.477-57.603-45.757-73.24-87.01
				c-4.066-10.77-7.13-21.032-13.644-45.774c-8.765-33.334-10.004-36.87-24.92-52.455c-18.113-18.982-32.407-28.231-63.737-41.213
				c-14.041-5.805-20.445-9.249-24.482-13.166c-4.492-4.342-6.64-8.074-7.527-18.717c-0.299-3.743-1.204-15.158,18.285-25.444
				c-6.185,7.809-10.182,16.506-6.168,27.08c3.951,10.056,18.32,19.408,29.435,24.396c6.024,2.695,40.746,16.54,48.475,19.397
				c10.701,3.916,18.009,5.598,24.454,5.598c8.155,0,14.98-2.684,22.121-8.708l1.1-0.91l134.062,0.346
				c-0.564,5.748-2.523,5.851-15.78,6.6c-10.39,0.553-14.156,0.76-16.817,3.974c-4.826,5.148-1.716,11.887,5.897,26.907
				c8.005,15.665,21.067,35.097,30.858,40.787c3.34,1.958,5.909,2.972,10.528,2.972c1.037,0,2.292-0.058,3.893-0.138
				c9.41-0.495,15.63-3.236,20.802-9.157c4.93-5.678,5.92-10.988,7.141-22.633c0.668-6.22,1.359-9.491,2.718-12.958
				c7.948-20.525,30.869-40.521,39.669-40.521l1.163,0.081c0.035,0.173,0.438,0.76,1.037,1.935c1.371,2.707,1.14,5.011,0.818,5.633
				c-0.334,0.46-3.041,3.697-7.084,7.971c-19.397,20.146-25.64,36.72-25.64,68.154c0,31.284,6.37,54.816,20.053,74.086
				c2.212,3.139,8.812,10.724,14.179,16.581c17.324,18.937,19.086,24.471,19.086,39.929c-0.081,10.211-0.795,15.331-3.674,26.002
				c-6.059,23.002-3.617,35.771,9.664,50.646c5.54,6.243,5.759,6.491,3.513,18.383c-2.949,15.395-4.124,22.496-5.782,36.865
				c-1.094,9.387-2.131,14.772-3.064,15.993l-1.601,0.432c-0.553,0-1.244-0.185-2.027-0.542c-0.265-0.202-3.386-2.667-9.088-8.535
				c-9.894-10.257-16.229-15.567-25.352-17.899c-13.016-3.312-22.288-1.457-43.493,9.111
				C315.598,5958.967,311.981,5960.7,310.023,5961.392z"/>
		</g>
	</g>
</g>
</svg>
