<?xml version="1.0" encoding="utf-8"?>
<!-- Generator: Adobe Illustrator 17.0.0, SVG Export Plug-In . SVG Version: 6.00 Build 0)  -->
<!DOCTYPE svg PUBLIC "-//W3C//DTD SVG 1.1//EN" "http://www.w3.org/Graphics/SVG/1.1/DTD/svg11.dtd">
<svg version="1.1" id="Layer_1" xmlns="http://www.w3.org/2000/svg" xmlns:xlink="http://www.w3.org/1999/xlink" x="0px" y="0px"
	 width="34.021px" height="33.825px" viewBox="0 0 34.021 33.825" enable-background="new 0 0 34.021 33.825" xml:space="preserve">
<path fill="#FFFFFF" stroke="#242424" stroke-width="1.5" stroke-miterlimit="10" d="M1.992,30.596
	c2.314-1.339,4.674-2.589,7.388-2.882c0.93-0.1,1.637-0.503,2.372-1.045c0.898-0.661,1.923-1.154,2.912-1.682
	c0.289-0.155,0.466-0.303,0.435-0.642c-0.062-0.67,0.259-1.18,0.667-1.67c0.112-0.135,0.191-0.307,0.25-0.481
	c0.668-0.952,0.767-2.572,0.932-3.523c0.427-2.462,2.13-4.526,2.25-7.064c0.008,0.001,0.015,0.003,0.023,0.004
	c0.219-2.157,0.709-4.218,1.695-6.189c0.863-1.724,2.058-3.054,3.743-3.899c1.731-0.869,3.452-0.915,4.972,0.546
	c0.054,0.051,0.128,0.096,0.208,0.127c0.617-0.041,3.261,0.003,3.429,3.759c0,0-0.087,2.731-2.091,3.636
	c0.023-0.057,1.022-2.458-2.534-2.697c-0.044-0.003-0.086-0.006-0.127-0.012c-0.024,0.067-0.027,0.131-0.014,0.193
	c-0.015-0.004-0.03-0.007-0.045-0.01c0.1,0.647,0.134,1.183,0.281,1.686c0.069,0.238,0.353,0.414,0.55,0.628
	c-0.22,0.445-0.922,0.744-1.604,0.6c-0.393-0.084-0.472,0.081-0.399,0.395c0.243,1.045,0.494,2.089,0.762,3.127
	c0.027,0.106,0.182,0.206,0.3,0.256c0.143,0.059,0.309,0.067,0.466,0.09c2.412,0.357,3.061,2.477,2.604,4.033
	c-0.341,1.159-0.837,2.307-1.937,3.077c-0.747,0.523-1.358,1.237-2.051,1.841c-0.369,0.323-0.795,0.581-1.169,0.898
	c-0.139,0.118-0.316,0.338-0.291,0.479c0.199,1.135-0.412,2.022-0.857,2.959c-0.482,1.013-0.974,2.021-1.463,3.03
	c-0.074,0.151-0.164,0.295-0.288,0.515c0.18,0.027,0.34,0.087,0.487,0.065c0.407-0.061,0.808-0.22,1.213-0.223
	c0.685-0.008,1.38,0.028,2.054,0.141c0.332,0.055,0.399,0.393,0.226,0.805c-0.699-0.775-1.123,0.031-1.725,0.213
	c0.272,0.315,0.705,0.56,0.318,1.062c-0.237-0.321-0.504-0.31-0.871-0.274c-0.338,0.034-0.816-0.156-1.042-0.414
	c-0.658-0.753-1.426-0.988-2.38-0.822c-0.33,0.057-0.643-0.022-0.894-0.323c-0.107-0.127-0.375-0.118-0.608-0.182
	c-0.085-0.421,0.806-0.857,1.478-0.611c0.277,0.101,0.534,0.257,0.883,0.317c-0.206-0.319-0.408-0.638-0.618-0.953
	c-0.256-0.383-0.47-0.812-0.795-1.124c-0.206-0.197-0.577-0.266-0.884-0.301c-0.274-0.032-0.564,0.1-0.846,0.094
	c-0.777-0.016-1.275,0.588-1.934,0.835c-0.592,0.222-1.155,0.519-1.725,0.795c-0.143,0.068-0.265,0.18-0.397,0.272
	c0.013,0.042,0.027,0.084,0.04,0.127c0.189,0,0.387,0.036,0.566-0.007c0.611-0.146,1.211-0.261,1.801,0.084
	c0.087,0.051,0.216,0.043,0.325,0.043c0.377-0.002,0.55,0.18,0.529,0.611c-0.383-0.179-0.591,0.021-0.883,0.234
	c-0.29,0.211-0.762,0.202-1.159,0.229c-0.209,0.013-0.432-0.092-0.641-0.164c-0.9-0.308-1.072-0.247-1.745,0.451
	c-0.337,0.35-0.718,0.681-1.136,0.922c-0.246,0.143-0.649,0.208-0.898,0.105c-0.402-0.165-0.63-0.047-0.868,0.226h-0.095
	c-0.007-0.375,0.123-0.664,0.457-0.877c0.286-0.183,0.303-0.425-0.049-0.554c-0.325-0.119-0.672-0.179-1.079-0.284
	c0.072-0.092,0.167-0.335,0.337-0.41c0.781-0.342,1.574-0.613,2.466-0.548c0.98,0.071,1.171-0.109,1.564-1.125
	c-0.556,0.201-1.085,0.391-1.644,0.593c-0.036-0.135-0.062-0.23-0.093-0.348c-0.136,0.055-0.254,0.096-0.366,0.15
	c-1.531,0.738-3.09,1.399-4.765,1.739c-0.341,0.068-0.689,0.138-1.034,0.144c-2.059,0.04-4.119,0.061-6.179,0.089v-0.095
	C1.16,31.121,1.566,30.842,1.992,30.596z M26.023,4.136c0.637,0.54,1.004-0.034,1.05-0.113v0.003
	c0.003-0.007,0.007-0.014,0.01-0.022c0.172-0.359-0.382-0.651-0.382-0.651c-0.314-0.165-0.678,0.04-0.678,0.04
	C25.669,3.841,26.023,4.136,26.023,4.136z"/>
</svg>
